# xmcd
# 
# Track frame offsets:
#     182
#     19430
#     33007
#     49832
#     62882
#     76457
#     92935
#     108535
#     125182
#     143065
#     157965
#     171390
#     186262
#     206335
#     220362
#     239217
# 
# Disc length: 3414
# 
# Revision: 4
# Processed by: cddbd v1.5.2PL0 Copyright (c) Steve Scherf et al.
# Submitted via: fre:ac v1.0.27
# 
DISCID=f30d5410
DTITLE=Marianne Rosenberg - StarCollection
DYEAR=1996
DGENRE=
TTITLE0=Marleen
TTITLE1=Er gehört zu mir
TTITLE2=Karneval
TTITLE3=Fremder Mann
TTITLE4=War es wirklich gestern
TTITLE5=Ich bin wie Du
TTITLE6=Er ist nicht wie Du
TTITLE7=Mr. Paul McCartney
TTITLE8=Nur eine Nacht
TTITLE9=Jeder Weg hat mal ein Ende
TTITLE10=Lieder der Nacht
TTITLE11=Ich bin wieder frei
TTITLE12=Wo schläfst du?
TTITLE13=Für immer wie heute
TTITLE14=Atlantis ist weit
TTITLE15=Wer ist das Mädchen?
EXTD=
EXTT0=
EXTT1=
EXTT2=
EXTT3=
EXTT4=
EXTT5=
EXTT6=
EXTT7=
EXTT8=
EXTT9=
EXTT10=
EXTT11=
EXTT12=
EXTT13=
EXTT14=
EXTT15=
PLAYORDER=
